<?xml version="1.0" encoding="UTF-8" standalone="no"?>
<svg xmlns="http://www.w3.org/2000/svg" height="240" width="250" viewBox="0 0 240 250">
  <defs id="defs2">
    <marker markerUnits="strokeWidth" style="overflow:visible" id="Arrow2Send" refX="0" refY="0" orient="auto">
      <path style="fill:#0000ff" d="M -3,-3 5,0 -3,3 Z" id="path863" />
    </marker>
  </defs>
    <path d="M 93.2117,80.4744 C 89.0949,85.7247 84.4946,90.8815 80.6698,97.019 76.845,103.156 73.7762,110.139 71.4635,117.967 70.4851,121.702 70.0404,125.594 70.1293,129.641 70.2182,133.688 70.8631,137.624 72.064,141.449 73.2648,145.274 75.0215,148.787 77.3342,151.989 79.6469,155.192 82.5377,157.816 86.0068,159.861 90.3653,162.263 95.1463,163.931 100.35,164.865 105.553,165.799 110.89,166.155 116.361,165.932 121.831,165.71 127.279,164.932 132.705,163.597 138.131,162.263 143.268,160.484 148.115,158.26 152.963,156.037 157.411,153.435 161.458,150.455 165.505,147.475 168.863,144.206 171.531,140.648 171.531,132.554 170.308,125.016 167.862,118.033 165.416,111.051 162.058,104.224 157.789,97.5527 158.5,92.2158 159.946,87.0345 162.125,82.0088 164.304,76.9832 166.684,72.2022 169.263,67.6657 169.974,66.3315 170.753,65.6866 171.598,65.7311 172.443,65.7756 173.265,66.1981 174.066,66.9986 174.867,67.7991 175.623,68.7553 176.335,69.8672 177.046,70.9791 177.669,71.9353 178.202,72.7358 179.447,74.6927 180.893,77.4947 182.539,81.1416 184.184,84.7885 185.852,89.6807 187.542,95.8182 189.232,101.956 189.677,111.651 188.876,124.904 188.165,126.594 187.431,129.396 186.675,133.31 185.919,137.224 184.585,141.694 182.672,146.719 180.76,151.745 177.936,157.038 174.2,162.597 170.464,168.156 165.26,173.382 158.589,178.274 152.985,182.277 147.27,185.79 141.444,188.814 135.618,191.839 129.658,194.174 123.565,195.819 117.472,197.465 111.202,198.332 104.753,198.421 98.304,198.51 91.6106,197.62 84.6725,195.752 78.0902,193.795 72.6866,191.149 68.4615,187.814 64.2364,184.478 60.9675,180.631 58.6548,176.273 56.3421,171.914 54.8745,167.133 54.2518,161.929 53.6292,156.726 53.6737,151.322 54.3853,145.718 55.1858,138.157 57.3206,129.218 60.7896,118.9 62.5686,113.564 64.8368,107.982 67.5942,102.156 70.3517,96.3297 73.7762,90.2144 77.8679,83.81 81.9596,77.1388 86.1179,70.9124 90.343,65.1307 92.2136,63.0489 94.3282,60.0821 96.9002,57.3195 98.3234,55.8964 99.324,55.296 99.9022,55.5183 100.48,55.7407 101.036,56.2077 101.57,56.9193 102.993,58.9651 106.277,62.0509 106.343,65.0477 101.151,70.9313 97.6402,74.8265 93.2117,80.4744 Z" id="path1198" style="fill:#59aa09" />
    <path d="M 198.313,39.6084 Q 198.313,39.3398 198.499,39.1445 198.689,38.9492 198.953,38.9492 199.226,38.9492 199.422,39.1445 199.617,39.3398 199.617,39.6084 199.617,39.8818 199.422,40.0723 199.231,40.2627 198.953,40.2627 198.679,40.2627 198.494,40.0771 198.313,39.8916 198.313,39.6084 Z M 198.963,36.6299 Q 198.274,36.6299 197.932,37.3721 197.595,38.1143 197.595,39.6328 197.595,41.1465 197.932,41.8887 198.274,42.6309 198.963,42.6309 199.656,42.6309 199.993,41.8887 200.335,41.1465 200.335,39.6328 200.335,38.1143 199.993,37.3721 199.656,36.6299 198.963,36.6299 Z M 198.963,35.8486 Q 200.13,35.8486 200.725,36.8057 201.326,37.7627 201.326,39.6328 201.326,41.498 200.725,42.4551 200.13,43.4121 198.963,43.4121 197.796,43.4121 197.2,42.4551 196.604,41.498 196.604,39.6328 196.604,37.7627 197.2,36.8057 197.796,35.8486 198.963,35.8486 Z M 193.528,36.8789 191.228,40.7314 H 193.528 Z M 193.367,35.9805 H 194.509 V 40.7314 H 195.481 V 41.5322 H 194.509 V 43.2705 H 193.528 V 41.5322 H 190.437 V 40.5996 Z M 186.311,38.0801 H 187.542 V 39.5596 H 186.311 Z M 186.311,41.7812 H 187.542 V 43.2705 H 186.311 Z M 183.04,39.8818 V 43.2705 H 182.136 V 39.8818 Q 182.136,39.1445 181.878,38.7978 181.619,38.4512 181.067,38.4512 180.437,38.4512 180.095,38.9004 179.758,39.3447 179.758,40.1797 V 43.2705 H 178.86 V 35.6728 H 179.758 V 38.6221 Q 179.998,38.1533 180.408,37.9141 180.818,37.6699 181.38,37.6699 182.215,37.6699 182.625,38.2217 183.04,38.7685 183.04,39.8818 Z M 174.89,36.249 V 37.8018 H 176.931 V 38.5 H 174.89 V 41.4687 Q 174.89,42.0742 175.12,42.3135 175.349,42.5527 175.921,42.5527 H 176.931 V 43.2705 H 175.833 Q 174.822,43.2705 174.407,42.8652 173.992,42.46 173.992,41.4687 V 38.5 H 172.532 V 37.8018 H 173.992 V 36.249 Z M 170.066,38.5 V 35.6728 H 170.965 V 43.2705 H 170.066 V 42.582 Q 169.841,42.9873 169.465,43.2021 169.094,43.4121 168.606,43.4121 167.615,43.4121 167.044,42.6455 166.477,41.874 166.477,40.5215 166.477,39.1885 167.049,38.4316 167.62,37.6699 168.606,37.6699 169.099,37.6699 169.475,37.8848 169.851,38.0947 170.066,38.5 Z M 167.424,40.541 Q 167.424,41.5859 167.757,42.1182 168.089,42.6504 168.738,42.6504 169.387,42.6504 169.724,42.1133 170.066,41.5762 170.066,40.541 170.066,39.501 169.724,38.9687 169.387,38.4316 168.738,38.4316 168.089,38.4316 167.757,38.9639 167.424,39.4961 167.424,40.541 Z M 161.111,37.8018 H 163.411 V 42.5723 H 165.193 V 43.2705 H 160.73 V 42.5723 H 162.512 V 38.5 H 161.111 Z M 162.512,35.6728 H 163.411 V 36.8105 H 162.512 Z M 153.845,37.8018 H 154.734 L 155.686,42.2207 156.467,39.3984 H 157.234 L 158.025,42.2207 158.977,37.8018 H 159.866 L 158.587,43.2705 H 157.727 L 156.853,40.2725 155.984,43.2705 H 155.125 Z M 149.568,40.1309 H 152.112 V 40.9316 H 149.568 Z M 147.244,40.3115 V 40.751 H 143.352 V 40.7803 Q 143.352,41.6738 143.816,42.1621 144.285,42.6504 145.134,42.6504 145.564,42.6504 146.033,42.5137 146.502,42.3769 147.034,42.0986 V 42.9922 Q 146.521,43.2021 146.043,43.3047 145.569,43.4121 145.125,43.4121 143.85,43.4121 143.132,42.6504 142.415,41.8838 142.415,40.541 142.415,39.2324 143.118,38.4512 143.821,37.6699 144.993,37.6699 146.038,37.6699 146.638,38.3779 147.244,39.0859 147.244,40.3115 Z M 146.345,40.0478 Q 146.326,39.2568 145.969,38.8467 145.618,38.4316 144.954,38.4316 144.304,38.4316 143.884,38.8613 143.465,39.291 143.386,40.0527 Z M 136.951,35.6728 H 137.879 V 40.0723 L 140.237,37.8018 H 141.331 L 139.177,39.8623 141.668,43.2705 H 140.569 L 138.548,40.4482 137.879,41.0781 V 43.2705 H 136.951 Z M 132.791,38.4316 Q 132.107,38.4316 131.756,38.9639 131.404,39.4961 131.404,40.541 131.404,41.581 131.756,42.1182 132.107,42.6504 132.791,42.6504 133.479,42.6504 133.831,42.1182 134.182,41.581 134.182,40.541 134.182,39.4961 133.831,38.9639 133.479,38.4316 132.791,38.4316 Z M 132.791,37.6699 Q 133.928,37.6699 134.529,38.4072 135.134,39.1445 135.134,40.541 135.134,41.9424 134.534,42.6797 133.933,43.4121 132.791,43.4121 131.653,43.4121 131.052,42.6797 130.452,41.9424 130.452,40.541 130.452,39.1445 131.052,38.4072 131.653,37.6699 132.791,37.6699 Z M 129.407,38.9297 Q 129.119,38.7051 128.821,38.6025 128.523,38.5 128.167,38.5 127.327,38.5 126.882,39.0273 126.438,39.5547 126.438,40.5508 V 43.2705 H 125.535 V 37.8018 H 126.438 V 38.8711 Q 126.663,38.29 127.127,37.9824 127.595,37.6699 128.235,37.6699 128.567,37.6699 128.855,37.7529 129.143,37.8359 129.407,38.0117 Z M 120.75,36.249 V 37.8018 H 122.791 V 38.5 H 120.75 V 41.4687 Q 120.75,42.0742 120.979,42.3135 121.209,42.5527 121.78,42.5527 H 122.791 V 43.2705 H 121.692 Q 120.681,43.2705 120.266,42.8652 119.851,42.46 119.851,41.4687 V 38.5 H 118.391 V 37.8018 H 119.851 V 36.249 Z M 116.487,37.9922 V 38.8711 Q 116.101,38.6465 115.711,38.5342 115.32,38.4219 114.915,38.4219 114.304,38.4219 114.002,38.6221 113.704,38.8174 113.704,39.2226 113.704,39.5889 113.928,39.7695 114.153,39.9502 115.047,40.1211 L 115.408,40.1894 Q 116.077,40.3164 116.419,40.6973 116.765,41.0781 116.765,41.6885 116.765,42.499 116.189,42.958 115.613,43.4121 114.588,43.4121 114.182,43.4121 113.738,43.3242 113.294,43.2412 112.776,43.0703 V 42.1426 Q 113.279,42.4014 113.738,42.5332 114.197,42.6601 114.607,42.6601 115.203,42.6601 115.53,42.4209 115.857,42.1768 115.857,41.7422 115.857,41.1172 114.661,40.8779 L 114.622,40.8682 114.285,40.7998 Q 113.508,40.6484 113.152,40.292 112.796,39.9307 112.796,39.3105 112.796,38.5244 113.328,38.0996 113.86,37.6699 114.846,37.6699 115.286,37.6699 115.691,37.7529 116.096,37.831 116.487,37.9922 Z" />
    <path d="M 206.679,56.048 V 57.6007 H 208.72 V 58.299 H 206.679 V 61.2677 Q 206.679,61.8732 206.908,62.1125 207.138,62.3517 207.709,62.3517 H 208.72 V 63.0695 H 207.621 Q 206.61,63.0695 206.195,62.6642 205.78,62.259 205.78,61.2677 V 58.299 H 204.32 V 57.6007 H 205.78 V 56.048 Z M 203.305,58.7287 Q 203.016,58.5041 202.719,58.4015 202.421,58.299 202.064,58.299 201.224,58.299 200.78,58.8263 200.336,59.3537 200.336,60.3498 V 63.0695 H 199.432 V 57.6007 H 200.336 V 58.6701 Q 200.56,58.089 201.024,57.7814 201.493,57.4689 202.133,57.4689 202.465,57.4689 202.753,57.5519 203.041,57.6349 203.305,57.8107 Z M 195.077,60.3205 H 194.779 Q 193.993,60.3205 193.593,60.5988 193.197,60.8722 193.197,61.4191 193.197,61.9123 193.495,62.1857 193.793,62.4591 194.32,62.4591 195.062,62.4591 195.487,61.9465 195.912,61.4289 195.917,60.5207 V 60.3205 Z M 196.82,59.9494 V 63.0695 H 195.917 V 62.259 Q 195.629,62.7472 195.189,62.9816 194.755,63.2111 194.13,63.2111 193.295,63.2111 192.797,62.7424 192.299,62.2687 192.299,61.4777 192.299,60.5646 192.909,60.091 193.524,59.6174 194.711,59.6174 H 195.917 V 59.4757 Q 195.912,58.8215 195.585,58.5285 195.258,58.2306 194.54,58.2306 194.081,58.2306 193.612,58.3625 193.143,58.4943 192.699,58.7482 V 57.8498 Q 193.197,57.6593 193.651,57.5666 194.11,57.4689 194.54,57.4689 195.219,57.4689 195.697,57.6691 196.18,57.8693 196.478,58.2697 196.664,58.5138 196.742,58.8752 196.82,59.2316 196.82,59.9494 Z M 188.632,56.048 V 57.6007 H 190.673 V 58.299 H 188.632 V 61.2677 Q 188.632,61.8732 188.861,62.1125 189.091,62.3517 189.662,62.3517 H 190.673 V 63.0695 H 189.574 Q 188.563,63.0695 188.148,62.6642 187.733,62.259 187.733,61.2677 V 58.299 H 186.273 V 57.6007 H 187.733 V 56.048 Z M 184.369,57.7912 V 58.6701 Q 183.983,58.4455 183.593,58.3332 183.202,58.2209 182.797,58.2209 182.186,58.2209 181.884,58.4211 181.586,58.6164 181.586,59.0216 181.586,59.3879 181.81,59.5685 182.035,59.7492 182.929,59.9201 L 183.29,59.9884 Q 183.959,60.1154 184.301,60.4963 184.647,60.8771 184.647,61.4875 184.647,62.298 184.071,62.757 183.495,63.2111 182.47,63.2111 182.064,63.2111 181.62,63.1232 181.176,63.0402 180.658,62.8693 V 61.9416 Q 181.161,62.2004 181.62,62.3322 182.079,62.4591 182.489,62.4591 183.085,62.4591 183.412,62.2199 183.739,61.9757 183.739,61.5412 183.739,60.9162 182.543,60.6769 L 182.504,60.6672 182.167,60.5988 Q 181.39,60.4474 181.034,60.091 180.678,59.7297 180.678,59.1095 180.678,58.3234 181.21,57.8986 181.742,57.4689 182.728,57.4689 183.168,57.4689 183.573,57.5519 183.978,57.63 184.369,57.7912 Z" />
    <path d="M 83.409,39.9142 V 37.087 H 84.3074 V 44.6847 H 83.409 V 43.9962 Q 83.1844,44.4015 82.8084,44.6163 82.4373,44.8263 81.949,44.8263 80.9578,44.8263 80.3865,44.0597 79.8201,43.2882 79.8201,41.9357 79.8201,40.6027 80.3914,39.8458 80.9627,39.0841 81.949,39.0841 82.4422,39.0841 82.8182,39.299 83.1942,39.5089 83.409,39.9142 Z M 80.7674,41.9552 Q 80.7674,43.0001 81.0994,43.5324 81.4315,44.0646 82.0809,44.0646 82.7303,44.0646 83.0672,43.5275 83.409,42.9904 83.409,41.9552 83.409,40.9152 83.0672,40.3829 82.7303,39.8458 82.0809,39.8458 81.4315,39.8458 81.0994,40.3781 80.7674,40.9103 80.7674,41.9552 Z M 78.3358,41.296 V 44.6847 H 77.4324 V 41.296 Q 77.4324,40.5587 77.1737,40.212 76.9149,39.8654 76.3631,39.8654 75.7332,39.8654 75.3914,40.3146 75.0545,40.7589 75.0545,41.5939 V 44.6847 H 74.1561 V 39.216 H 75.0545 V 40.0363 Q 75.2938,39.5675 75.7039,39.3283 76.1141,39.0841 76.6756,39.0841 77.5106,39.0841 77.9207,39.6359 78.3358,40.1827 78.3358,41.296 Z M 72.618,41.7257 V 42.1652 H 68.7264 V 42.1945 Q 68.7264,43.088 69.1903,43.5763 69.659,44.0646 70.5086,44.0646 70.9383,44.0646 71.4071,43.9279 71.8758,43.7911 72.408,43.5128 V 44.4064 Q 71.8953,44.6163 71.4168,44.7189 70.9432,44.8263 70.4988,44.8263 69.2244,44.8263 68.5067,44.0646 67.7889,43.298 67.7889,41.9552 67.7889,40.6466 68.492,39.8654 69.1951,39.0841 70.367,39.0841 71.4119,39.0841 72.0125,39.7921 72.618,40.5001 72.618,41.7257 Z M 71.7196,41.462 Q 71.7,40.671 71.3436,40.2609 70.992,39.8458 70.3279,39.8458 69.6785,39.8458 69.2586,40.2755 68.8387,40.7052 68.7606,41.4669 Z" />
    <path d="M 131.844,45.5873 114.723,61.0043" id="path23" style="stroke:#0000ff;marker-end:url(#Arrow2Send)" />
    <path style="fill:none;stroke:#0000ff;marker-end:url(#Arrow2Send)" id="path1260" d="M 137.501,107.768 A 25,25 0 1 1 104.824,107.768" />
    <path style="fill-opacity:0.2;stroke:#000000" id="path1227" d="M 90.4108,44.313 C 66.546,70.7594 47.3577,98.8296 42.6705,128.588 40.3269,143.468 42.3947,159.697 51.4615,173.055 60.5284,186.413 75.3112,195.582 93.6647,200.908 125.63,210.185 160.595,196.628 182.94,170.324 194.112,157.173 201.782,139.582 201.061,120.034 200.34,100.485 191.306,80.2115 174.028,61.3169 L 144.51,88.3091 C 157.044,102.015 160.773,112.958 161.088,121.508 161.403,130.058 158.382,137.45 152.455,144.426 140.603,158.378 115.739,165.665 104.813,162.494 92.5242,158.928 87.1257,154.371 84.5592,150.59 81.9927,146.809 80.9755,142.485 82.1842,134.811 84.6016,119.463 99.066,94.4302 120.108,71.1118 Z" />
    <path id="path1214" d="M 159.269,74.8128 C 218.893,140.014 142.131,194.148 99.2394,181.701 37.9546,163.916 60.3529,107.477 105.26,57.7127" style="fill:none;stroke:#ff0000" />
</svg>
