<?xml version="1.0" encoding="UTF-8" standalone="no"?>
<svg xmlns="http://www.w3.org/2000/svg" height="240" width="250" viewBox="300 0 240 250">
    <path style="fill:#59aa09;stroke-width:1.25" d="M 465.503,156.087 C 468.088,148.792 469.39,143.49 469.39,140.18 469.39,135.254 467.464,130.315 463.593,125.392 459.724,120.467 454.158,116.383 447.191,112.529 419.508,97.1965 394.888,92.388 361.803,96.5706 344.66,98.73 337.249,103.735 332.226,105.579 329.608,106.534 331.683,114.44 335.586,126.675 344.347,122.723 353.931,117.832 363.862,115.428 375.785,112.529 387.263,110.108 390.903,110.108 399.796,110.108 408.589,111.986 417.268,115.741 425.963,119.611 433.472,124.797 439.797,131.336 446.235,137.874 450.731,143.555 452.757,150.636 Z" id="path2229" />
    <path style="fill:#59aa09;stroke-width:1.25" d="M 452.757,150.636 C 450.188,153.634 446.17,157.176 441.246,159.002 436.305,160.929 431.48,161.901 426.77,161.901 413.909,161.901 403.023,157.554 394.114,148.875 385.32,140.295 377.959,128.602 374.171,103.983 370.96,83.1176 375.044,60.3251 378.683,51.4145 L 356.286,47.8041 C 349.732,65.9293 347.838,83.7749 349.271,108.264 351.181,141.217 361.573,159.315 374.336,171.223 387.099,183.228 403.501,189.238 423.542,189.238 429.768,189.238 436.091,188.002 442.53,185.532 448.969,183.178 453.514,180.345 456.199,177.019 457.911,174.977 461.964,166.412 465.503,156.087 458.3,151.575 455.917,151.714 452.757,150.636 Z" id="path30" />
    <path id="path46" d="M 391.506,87.3237 C 369.018,86.3298 344.531,90.9725 321.393,104.009 L 337.1,131.888 C 365.028,116.153 396.429,116.889 418.307,124.728 429.246,128.647 437.524,134.458 441.381,139.093 445.238,143.729 445.047,144.785 444.133,146.884 L 473.471,159.661 C 479.654,145.465 474.934,129.385 465.979,118.624 457.024,107.863 444.205,100.015 429.1,94.603 417.771,90.5438 404.999,87.92 391.506,87.3237 Z" style="fill-opacity:0.2;stroke:#000000" />
    <path id="path34" d="M 351.611,43.1147 C 339.553,92.5212 342.532,141.348 374.172,173.347 L 374.934,174.117 375.789,174.777 C 394.837,189.441 415.311,195.08 433.447,191.726 451.584,188.372 466.364,175.935 473.475,159.576 L 444.127,146.818 C 440.897,154.248 435.372,158.827 427.629,160.259 420.064,161.658 409.389,159.907 396.225,150.068 376.166,129.042 372.193,93.748 382.699,50.7026 Z" style="fill-opacity:0.2;stroke:#000000" />
    <path id="path32" d="M 329.246,117.948 C 394.196,81.3539 472.996,120.682 458.801,153.273" style="fill:none;stroke:#ff0000" />
    <path id="path50" d="M 458.801,153.197 C 448.46,176.986 418.191,187.228 385.55,162.098 359.383,135.634 355.809,93.394 367.155,46.9084" style="fill:none;stroke:#ff0000" />
    <path d="M 527.248,97.5165 V 99.0693 H 529.289 V 99.7675 H 527.248 V 102.736 Q 527.248,103.342 527.477,103.581 527.707,103.82 528.278,103.82 H 529.289 V 104.538 H 528.19 Q 527.18,104.538 526.765,104.133 526.349,103.727 526.349,102.736 V 99.7675 H 524.89 V 99.0693 H 526.349 V 97.5165 Z M 523.366,101.149 V 104.538 H 522.463 V 101.149 Q 522.463,100.412 522.204,100.065 521.945,99.7187 521.393,99.7187 520.764,99.7187 520.422,100.168 520.085,100.612 520.085,101.447 V 104.538 H 519.186 V 99.0693 H 520.085 V 99.8896 Q 520.324,99.4208 520.734,99.1816 521.144,98.9374 521.706,98.9374 522.541,98.9374 522.951,99.4892 523.366,100.036 523.366,101.149 Z M 517.648,101.579 V 102.018 H 513.757 V 102.048 Q 513.757,102.941 514.221,103.43 514.689,103.918 515.539,103.918 515.969,103.918 516.437,103.781 516.906,103.644 517.438,103.366 V 104.26 Q 516.926,104.47 516.447,104.572 515.974,104.68 515.529,104.68 514.255,104.68 513.537,103.918 512.819,103.151 512.819,101.809 512.819,100.5 513.522,99.7187 514.225,98.9374 515.397,98.9374 516.442,98.9374 517.043,99.6454 517.648,100.353 517.648,101.579 Z M 516.75,101.315 Q 516.73,100.524 516.374,100.114 516.022,99.6991 515.358,99.6991 514.709,99.6991 514.289,100.129 513.869,100.559 513.791,101.32 Z M 510.392,101.76 Q 510.392,100.749 510.06,100.226 509.733,99.6991 509.103,99.6991 508.444,99.6991 508.098,100.226 507.751,100.749 507.751,101.76 507.751,102.77 508.098,103.303 508.449,103.83 509.113,103.83 509.733,103.83 510.06,103.298 510.392,102.766 510.392,101.76 Z M 511.291,104.186 Q 511.291,105.417 510.71,106.052 510.129,106.686 509.001,106.686 508.63,106.686 508.224,106.618 507.819,106.55 507.414,106.418 V 105.529 Q 507.892,105.754 508.283,105.861 508.674,105.969 509.001,105.969 509.728,105.969 510.06,105.573 510.392,105.178 510.392,104.318 V 104.279 103.669 Q 510.178,104.128 509.807,104.352 509.435,104.577 508.903,104.577 507.946,104.577 507.375,103.81 506.804,103.044 506.804,101.76 506.804,100.471 507.375,99.704 507.946,98.9374 508.903,98.9374 509.431,98.9374 509.797,99.1474 510.163,99.3573 510.392,99.7968 V 99.0888 H 511.291 Z M 505.319,101.149 V 104.538 H 504.416 V 101.149 Q 504.416,100.412 504.157,100.065 503.898,99.7187 503.347,99.7187 502.717,99.7187 502.375,100.168 502.038,100.612 502.038,101.447 V 104.538 H 501.14 V 99.0693 H 502.038 V 99.8896 Q 502.277,99.4208 502.687,99.1816 503.098,98.9374 503.659,98.9374 504.494,98.9374 504.904,99.4892 505.319,100.036 505.319,101.149 Z M 497.599,101.789 H 497.302 Q 496.516,101.789 496.115,102.067 495.72,102.341 495.72,102.888 495.72,103.381 496.017,103.654 496.315,103.928 496.843,103.928 497.585,103.928 498.01,103.415 498.434,102.897 498.439,101.989 V 101.789 Z M 499.343,101.418 V 104.538 H 498.439 V 103.727 Q 498.151,104.216 497.712,104.45 497.277,104.68 496.652,104.68 495.817,104.68 495.319,104.211 494.821,103.737 494.821,102.946 494.821,102.033 495.432,101.559 496.047,101.086 497.233,101.086 H 498.439 V 100.944 Q 498.434,100.29 498.107,99.997 497.78,99.6991 497.062,99.6991 496.603,99.6991 496.135,99.831 495.666,99.9628 495.222,100.217 V 99.3183 Q 495.72,99.1278 496.174,99.0351 496.633,98.9374 497.062,98.9374 497.741,98.9374 498.22,99.1376 498.703,99.3378 499.001,99.7382 499.186,99.9823 499.265,100.344 499.343,100.7 499.343,101.418 Z M 491.154,97.5165 V 99.0693 H 493.195 V 99.7675 H 491.154 V 102.736 Q 491.154,103.342 491.384,103.581 491.613,103.82 492.184,103.82 H 493.195 V 104.538 H 492.097 Q 491.086,104.538 490.671,104.133 490.256,103.727 490.256,102.736 V 99.7675 H 488.796 V 99.0693 H 490.256 V 97.5165 Z M 481.257,101.149 V 104.538 H 480.353 V 101.149 Q 480.353,100.412 480.095,100.065 479.836,99.7187 479.284,99.7187 478.654,99.7187 478.312,100.168 477.975,100.612 477.975,101.447 V 104.538 H 477.077 V 96.9403 H 477.975 V 99.8896 Q 478.215,99.4208 478.625,99.1816 479.035,98.9374 479.597,98.9374 480.432,98.9374 480.842,99.4892 481.257,100.036 481.257,101.149 Z M 473.107,97.5165 V 99.0693 H 475.148 V 99.7675 H 473.107 V 102.736 Q 473.107,103.342 473.337,103.581 473.566,103.82 474.138,103.82 H 475.148 V 104.538 H 474.05 Q 473.039,104.538 472.624,104.133 472.209,103.727 472.209,102.736 V 99.7675 H 470.749 V 99.0693 H 472.209 V 97.5165 Z M 467.521,101.789 H 467.224 Q 466.437,101.789 466.037,102.067 465.641,102.341 465.641,102.888 465.641,103.381 465.939,103.654 466.237,103.928 466.765,103.928 467.507,103.928 467.932,103.415 468.356,102.897 468.361,101.989 V 101.789 Z M 469.265,101.418 V 104.538 H 468.361 V 103.727 Q 468.073,104.216 467.634,104.45 467.199,104.68 466.574,104.68 465.739,104.68 465.241,104.211 464.743,103.737 464.743,102.946 464.743,102.033 465.353,101.559 465.969,101.086 467.155,101.086 H 468.361 V 100.944 Q 468.356,100.29 468.029,99.997 467.702,99.6991 466.984,99.6991 466.525,99.6991 466.057,99.831 465.588,99.9628 465.143,100.217 V 99.3183 Q 465.641,99.1278 466.096,99.0351 466.555,98.9374 466.984,98.9374 467.663,98.9374 468.141,99.1376 468.625,99.3378 468.923,99.7382 469.108,99.9823 469.186,100.344 469.265,100.7 469.265,101.418 Z M 459.909,103.85 V 106.618 H 459.006 V 99.0693 H 459.909 V 99.7675 Q 460.134,99.3622 460.505,99.1523 460.881,98.9374 461.369,98.9374 462.36,98.9374 462.922,99.704 463.488,100.471 463.488,101.828 463.488,103.161 462.922,103.923 462.355,104.68 461.369,104.68 460.871,104.68 460.495,104.47 460.124,104.255 459.909,103.85 Z M 462.546,101.809 Q 462.546,100.764 462.214,100.231 461.887,99.6991 461.237,99.6991 460.583,99.6991 460.246,100.236 459.909,100.768 459.909,101.809 459.909,102.844 460.246,103.381 460.583,103.918 461.237,103.918 461.887,103.918 462.214,103.386 462.546,102.853 462.546,101.809 Z" />
    <path d="M 521.529,173.304 V 173.743 H 517.637 V 173.773 Q 517.637,174.666 518.101,175.155 518.57,175.643 519.42,175.643 519.849,175.643 520.318,175.506 520.787,175.369 521.319,175.091 V 175.985 Q 520.806,176.195 520.328,176.297 519.854,176.405 519.41,176.405 518.135,176.405 517.418,175.643 516.7,174.876 516.7,173.534 516.7,172.225 517.403,171.444 518.106,170.662 519.278,170.662 520.323,170.662 520.924,171.37 521.529,172.078 521.529,173.304 Z M 520.631,173.04 Q 520.611,172.249 520.255,171.839 519.903,171.424 519.239,171.424 518.59,171.424 518.17,171.854 517.75,172.284 517.672,173.045 Z M 515.216,172.874 V 176.263 H 514.312 V 172.874 Q 514.312,172.137 514.053,171.79 513.795,171.444 513.243,171.444 512.613,171.444 512.271,171.893 511.934,172.337 511.934,173.172 V 176.263 H 511.036 V 170.794 H 511.934 V 171.615 Q 512.174,171.146 512.584,170.907 512.994,170.662 513.555,170.662 514.39,170.662 514.801,171.214 515.216,171.761 515.216,172.874 Z M 505.318,170.794 H 507.618 V 175.565 H 509.4 V 176.263 H 504.937 V 175.565 H 506.719 V 171.492 H 505.318 Z M 506.719,168.665 H 507.618 V 169.803 H 506.719 Z M 501.173,174.281 Q 501.173,174.886 501.392,175.194 501.617,175.501 502.052,175.501 H 503.101 V 176.263 H 501.964 Q 501.158,176.263 500.714,175.745 500.274,175.228 500.274,174.281 V 169.315 H 498.834 V 168.612 H 501.173 Z M 489.019,169.242 V 170.794 H 491.06 V 171.492 H 489.019 V 174.461 Q 489.019,175.067 489.249,175.306 489.478,175.545 490.05,175.545 H 491.06 V 176.263 H 489.962 Q 488.951,176.263 488.536,175.858 488.121,175.452 488.121,174.461 V 171.492 H 486.661 V 170.794 H 488.121 V 169.242 Z M 480.958,174.193 V 170.804 H 481.856 V 174.193 Q 481.856,174.93 482.115,175.277 482.379,175.623 482.926,175.623 483.56,175.623 483.897,175.179 484.234,174.73 484.234,173.895 V 170.804 H 485.137 V 176.263 H 484.234 V 175.443 Q 483.995,175.916 483.58,176.16 483.17,176.405 482.618,176.405 481.778,176.405 481.368,175.858 480.958,175.306 480.958,174.193 Z M 479.171,175.985 Q 478.809,176.195 478.424,176.297 478.043,176.405 477.642,176.405 476.373,176.405 475.655,175.643 474.942,174.881 474.942,173.534 474.942,172.186 475.655,171.424 476.373,170.662 477.642,170.662 478.038,170.662 478.414,170.765 478.79,170.867 479.171,171.082 V 172.025 Q 478.814,171.707 478.453,171.566 478.096,171.424 477.642,171.424 476.798,171.424 476.344,171.971 475.889,172.518 475.889,173.534 475.889,174.544 476.344,175.096 476.802,175.643 477.642,175.643 478.111,175.643 478.482,175.501 478.853,175.355 479.171,175.052 Z" />
    <path d="M 429.457,140.43 458.801,153.273 488.145,166.116" style="fill:none;stroke:#0000ff" id="path56" />
    <path id="path59" style="fill:none;stroke:#0000ff" d="M 478.065,109.257 458.801,153.273 439.537,197.289" />
    <path d="M 462.238,144.879 A 9,9 0 0 1 467.231,150.045 9,9 0 0 1 466.852,157.219" id="path71" style="fill:none;stroke:#0000ff" />
</svg>
