<?xml version="1.0" encoding="UTF-8" standalone="no"?>
<svg xmlns="http://www.w3.org/2000/svg" height="240" width="380" viewBox="0 250 380 240">
    <path id="path28" d="M 99.8935,290.101 C 96.6165,290.197 93.0515,291.276 89.7007,293.786 72.3132,306.81 65.6993,349.86 65.6993,355.786 68.6043,395.93 93.3225,462.822 130.7,463.036 V 426.286 C 100.465,430.367 75.5873,385.848 72.4498,353.533 71.7248,346.052 81.9493,314.036 95.6995,313.286 96.1995,323.286 89.2007,336.036 85.9507,347.536 87.7007,356.536 90.2002,362.536 97.9495,363.286 109.7,364.786 131.415,340.778 130.7,311.786 127.64,313.012 122.754,312.901 122.699,317.036 122.594,324.788 113.949,329.536 103.949,329.036 103.352,326.202 103.415,323.504 103.798,320.867 103.81,320.788 103.819,320.713 103.832,320.632 103.929,319.992 104.042,319.357 104.172,318.725 104.555,316.85 105.062,314.997 105.56,313.146 106.917,308.615 108.818,304.132 111.047,301.103 114.775,296.031 108.27,289.858 99.8935,290.101 Z" style="fill:#59aa09;stroke-width:1.25" />
    <path style="fill-opacity:0.2;stroke:#000000" d="M 93.5415,281.636 92.9595,281.644 91.4635,281.667 89.9913,281.925 88.8195,282.131 87.0811,282.435 85.4332,283.057 84.254,283.502 82.8941,284.018 81.6271,284.735 80.4453,285.406 79.4273,285.985 78.4873,286.687 77.3057,287.567 76.5513,288.132 75.8556,288.769 74.6788,289.846 74.1148,290.36 73.5972,290.918 72.4278,292.179 72.003,292.637 71.6075,293.124 70.4502,294.555 70.1207,294.958 69.8155,295.381 68.673,296.963 68.4141,297.321 68.1725,297.689 67.047,299.413 66.8395,299.73 66.6466,300.055 65.5431,301.903 65.3721,302.189 65.2135,302.478 64.1368,304.437 63.9927,304.697 63.861,304.958 62.8136,307.012 62.6915,307.247 62.5792,307.488 61.5636,309.625 61.4122,309.947 61.2706,310.276 59.3565,314.737 59.1881,315.132 59.0391,315.528 57.3033,320.151 57.1617,320.521 57.0396,320.901 55.5088,325.562 55.3843,325.939 55.277,326.321 53.983,330.913 53.8682,331.321 53.7706,331.733 52.7403,336.137 52.628,336.612 52.5426,337.096 51.8077,341.201 51.7271,341.641 51.671,342.084 51.422,343.987 51.3756,344.343 51.3438,344.699 51.1778,346.483 51.1387,346.911 51.1192,347.341 51.0436,348.992 51.0191,349.523 51.0265,350.052 51.0411,351.559 51.0485,352.048 51.0777,352.533 51.3511,356.884 51.3731,357.223 51.4073,357.56 51.8395,361.911 51.8712,362.237 51.9151,362.566 52.5011,366.903 52.545,367.221 52.5987,367.536 53.3311,371.853 53.3848,372.163 53.4483,372.473 54.3248,376.762 54.3858,377.064 54.4591,377.362 55.4747,381.615 55.5455,381.911 55.6261,382.204 56.776,386.408 56.8565,386.697 56.9445,386.987 58.2237,391.134 58.3116,391.42 58.4092,391.702 59.8131,395.788 59.9107,396.071 60.0181,396.351 61.5416,400.36 61.649,400.641 61.7637,400.918 63.402,404.843 63.5191,405.127 63.6461,405.401 65.3941,409.235 65.5211,409.516 65.6602,409.793 67.5108,413.524 67.6525,413.807 67.8038,414.086 69.7545,417.704 69.9107,417.99 70.0743,418.273 72.1202,421.769 72.2911,422.059 72.4717,422.346 74.608,425.711 74.796,426.007 74.9937,426.295 77.2155,429.526 77.423,429.827 77.6426,430.122 79.9448,433.202 80.1743,433.511 80.4186,433.807 82.7965,436.733 83.0528,437.048 83.3213,437.353 85.7701,440.112 86.0557,440.434 86.3561,440.742 88.8707,443.324 89.1905,443.653 89.5275,443.966 92.1031,446.367 92.462,446.701 92.8375,447.016 95.4695,449.223 95.8745,449.559 96.2975,449.877 98.9815,451.879 99.4345,452.218 99.9085,452.531 102.638,454.321 103.152,454.658 103.683,454.958 106.452,456.528 107.025,456.851 107.619,457.136 110.427,458.475 111.067,458.781 111.725,459.038 114.564,460.137 115.089,460.341 115.627,460.512 117.055,460.971 117.428,461.091 117.807,461.192 119.243,461.588 119.63,461.694 120.024,461.783 121.464,462.112 121.869,462.206 122.277,462.281 123.723,462.545 124.14,462.624 124.562,462.68 126.013,462.877 126.444,462.937 126.877,462.975 128.332,463.103 128.774,463.144 129.215,463.163 130.673,463.223 131.124,463.244 131.574,463.242 133.034,463.232 132.799,425.732 131.815,425.738 131.213,425.711 130.639,425.663 130.038,425.581 129.443,425.471 128.805,425.326 128.119,425.137 127.604,424.973 125.954,424.333 124.364,423.576 122.712,422.641 120.962,421.49 119.162,420.148 117.277,418.569 115.429,416.846 113.534,414.899 111.638,412.762 109.774,410.473 107.875,407.929 106.09,405.334 104.294,402.502 102.624,399.646 100.968,396.579 99.3685,393.362 97.8935,390.127 96.4835,386.742 95.1885,383.336 93.9715,379.797 92.8675,376.221 91.881,372.613 90.9898,368.891 90.2476,365.25 89.6251,361.591 89.1271,357.913 88.756,354.163 88.5362,350.675 88.5288,350.156 88.5606,349.488 88.651,348.512 88.7975,347.382 89.3663,344.201 90.194,340.663 91.2535,336.908 92.5596,332.927 94.0025,329.093 95.5945,325.386 96.3465,323.798 97.1225,322.276 97.9285,320.812 98.6515,319.601 99.3245,318.569 99.9115,317.761 100.345,317.225 100.527,317.028 100.914,316.74 100.883,316.697 101.183,316.423 98.4535,313.442 96.2175,310.446 94.9115,308.144 94.4495,306.923 95.4825,306.086 114.982,293.882 114.702,293.434 114.089,292.456 113.359,291.557 112.902,290.995 112.397,290.372 111.84,289.793 111.329,289.269 110.768,288.685 110.155,288.153 109.594,287.665 108.985,287.136 108.334,286.658 107.719,286.211 107.025,285.706 106.29,285.266 105.729,284.927 104.894,284.43 104.01,284.018 103.444,283.757 102.512,283.322 101.535,282.992 100.964,282.798 99.9575,282.461 98.9175,282.235 98.3415,282.112 97.2935,281.887 96.2235,281.781 95.6465,281.723 94.5965,281.62 Z" id="path2239" />
    <path id="path2249" d="M 132.917,444.482 C 101.757,445.432 71.8505,397.737 69.7911,351.357 69.1148,336.127 84.7428,293.406 96.6665,301.357 110.403,310.516 85.4465,347.374 102.917,347.607 121.389,347.853 123.804,324.744 129.167,308.232" style="fill:none;stroke:#ff0000" />
    <path id="path2241" d="M 298.657,289.276 C 295.38,289.372 291.817,290.45 288.466,292.96 271.078,305.984 264.464,349.034 264.464,354.96 267.369,395.104 292.086,461.996 329.464,462.21 V 425.46 C 299.229,429.541 274.351,385.023 271.214,352.708 270.489,345.227 280.714,313.21 294.464,312.46 294.964,322.46 287.966,335.21 284.716,346.71 285.486,350.674 286.402,354.055 287.849,356.663 L 287.52,353.337 287.302,349.851 287.294,349.331 287.325,348.663 287.415,347.686 287.561,346.557 288.132,343.376 288.958,339.837 290.018,336.083 291.325,332.102 292.767,328.268 294.358,324.561 295.11,322.973 295.888,321.45 296.692,319.987 297.417,318.776 298.089,317.743 298.677,316.936 299.111,316.399 299.292,316.202 299.679,315.915 299.648,315.872 299.949,315.598 297.218,312.616 294.981,309.62 293.677,307.319 293.214,306.098 294.247,305.26 310.427,295.135 C 308.992,291.814 304.251,289.114 298.657,289.276 Z" style="fill:#59aa09" />
</svg>

