<?xml version="1.0" encoding="UTF-8" standalone="no"?>
<svg xmlns="http://www.w3.org/2000/svg" height="240" width="250" viewBox="400 250 240 250">
    <path id="path2253" d="M 505.743,320.867 C 505.84,320.228 505.987,319.357 506.117,318.725 506.5,316.85 507.007,314.997 507.505,313.146 508.862,308.615 510.763,304.132 512.992,301.103 516.72,296.031 510.215,289.858 501.839,290.101 498.562,290.197 494.997,291.276 491.646,293.786 474.259,306.81 467.645,349.86 467.645,355.786 470.55,395.93 495.268,462.822 532.645,463.036 V 426.286 C 502.41,430.367 477.533,385.848 474.395,353.533 473.67,346.052 483.895,314.036 497.645,313.286 497.764,315.665 497.458,318.201 496.88,320.838 495.027,329.283 490.373,338.771 487.896,347.536 489.646,356.536 492.146,362.536 499.895,363.286 511.645,364.786 533.36,340.778 532.645,311.786 529.585,313.012 524.699,312.901 524.644,317.036 524.539,324.788 515.894,329.536 505.894,329.036 505.297,326.202 505.36,323.504 505.743,320.867" style="fill:#59aa09;stroke-width:1.25" />
    <path style="fill-opacity:0.2;stroke:#000000" d="M 495.498,276.754 C 474.397,275.661 457.682,290.144 449.713,304.737 441.745,319.331 438.81,335.194 438.301,349.218 437.206,379.425 451.085,407.088 469.104,428.016 487.123,448.944 509.097,465.276 535.473,464.471 L 534.252,424.492 C 529.469,424.637 512.313,416.898 499.414,401.918 486.516,386.937 477.689,366.855 478.276,350.668 478.591,341.963 481.185,330.566 484.821,323.908 488.456,317.25 489.418,316.492 493.43,316.701 495.933,316.829 494.605,316.658 494.772,316.884 494.939,317.11 495.684,318.959 495.684,320.869 H 535.684 C 535.684,311.896 533.546,302.071 526.967,293.148 520.388,284.225 508.45,277.423 495.498,276.754 Z" id="path2267" />
    <path style="fill-opacity:0.2;stroke:#000000" d="M 559.225,300.314 520.778,311.353 C 523.935,322.348 521.771,322.747 520.748,323.764 519.726,324.783 515.288,325.833 515.202,325.827 L 515.118,325.822 515.032,325.817 C 509.781,325.552 508.72,324.307 508.1,323.639 507.48,322.973 507.118,321.959 507.118,320.869 H 467.118 C 467.118,331.196 470.711,342.165 478.795,350.867 486.862,359.548 499.218,365.042 512.926,365.756 524.637,366.43 537.697,363.324 548.955,352.127 560.24,340.903 565.156,320.973 559.225,300.314 Z" id="path2263" />
    <path style="fill:none;stroke:#ff0000" d="M 534.862,444.482 C 503.702,445.432 456.606,396.338 458.288,349.942 459.112,327.213 469.351,295.427 494.464,296.726 509.919,297.526 515.684,309.985 515.684,320.867 M 487.118,320.867 C 487.118,332.286 495.028,344.834 514.023,345.793 525.841,346.49 549.09,337.487 540.002,305.834" id="path2255" />
</svg>
